<?xml version="1.0" standalone="no"?>
<!DOCTYPE svg PUBLIC "-//W3C//DTD SVG 20010904//EN"
 "http://www.w3.org/TR/2001/REC-SVG-20010904/DTD/svg10.dtd">
<svg version="1.0" xmlns="http://www.w3.org/2000/svg"
 width="540" height="77" viewBox="0 0 927.000000 158.000000"
 preserveAspectRatio="xMidYMid meet">

<g transform="translate(0.000000,158.000000) scale(0.100000,-0.100000)"
fill="#000000" stroke="none">
<path d="M580 1384 c-151 -23 -218 -50 -288 -118 -59 -56 -94 -126 -100 -202
-16 -205 110 -322 436 -405 150 -39 197 -60 216 -98 23 -43 20 -75 -10 -110
-61 -73 -220 -65 -282 14 -13 16 -29 52 -38 82 -11 38 -20 53 -33 53 -28 0
-336 -22 -338 -24 -1 -1 4 -32 12 -69 24 -113 89 -220 164 -270 155 -103 510
-114 692 -21 178 90 264 310 188 483 -61 138 -158 194 -483 276 -76 19 -147
42 -157 51 -34 31 -20 87 28 112 31 17 129 15 163 -3 38 -20 68 -60 76 -102
l7 -34 71 5 c39 3 119 8 179 12 l108 6 -7 36 c-27 151 -117 258 -249 298 -97
29 -262 42 -355 28z m295 -29 c38 -8 93 -26 122 -41 86 -42 156 -141 170 -239
l6 -45 -60 0 c-33 0 -107 -3 -164 -6 l-104 -6 -22 51 c-25 58 -64 87 -131 97
-93 14 -165 -31 -160 -100 4 -55 29 -70 196 -111 305 -76 398 -128 457 -258
24 -52 27 -68 23 -145 -10 -245 -191 -382 -502 -382 -247 0 -381 49 -467 169
-37 51 -79 159 -79 202 0 25 20 29 188 31 l143 3 18 -53 c32 -92 93 -134 196
-135 127 -1 200 87 150 183 -21 40 -75 66 -214 101 -209 53 -298 95 -367 172
-104 116 -96 291 19 407 49 49 144 96 219 109 87 14 286 12 363 -4z"/>
<path d="M1835 1380 c-130 -21 -227 -70 -315 -159 -119 -120 -162 -241 -162
-451 0 -199 41 -323 147 -439 95 -103 199 -153 368 -172 82 -10 127 -10 201
-1 266 33 428 168 493 412 24 91 24 320 -1 410 -54 196 -193 333 -391 385 -73
20 -258 27 -340 15z m331 -30 c116 -30 180 -65 254 -139 114 -115 154 -230
154 -436 -1 -154 -18 -237 -70 -337 -69 -129 -215 -233 -366 -258 -95 -16
-313 -8 -388 15 -249 76 -380 274 -380 575 0 204 50 338 166 450 70 67 158
113 259 135 96 21 278 19 371 -5z"/>
<path d="M1882 1097 c-118 -43 -171 -164 -159 -365 8 -151 34 -209 116 -267
40 -28 48 -30 136 -30 88 0 96 2 137 30 80 57 109 139 109 315 0 142 -18 201
-80 260 -27 26 -63 51 -87 58 -51 15 -128 14 -172 -1z m184 -18 c41 -13 93
-64 118 -119 18 -39 21 -64 21 -190 0 -136 -2 -149 -26 -201 -52 -110 -168
-155 -292 -113 -61 20 -120 87 -137 152 -29 115 -21 291 17 366 53 105 167
145 299 105z"/>
<path d="M2780 770 l0 -602 383 5 c303 3 396 8 451 20 117 28 187 83 238 187
32 66 32 205 -1 272 -28 57 -87 113 -148 140 l-45 20 28 15 c82 42 134 133
134 233 0 37 -7 88 -16 114 -23 66 -95 137 -169 167 -59 23 -66 24 -457 27
l-398 3 0 -601z m860 554 c107 -50 161 -126 168 -238 8 -121 -46 -210 -157
-259 l-46 -20 40 -12 c101 -30 180 -96 206 -171 7 -22 13 -73 13 -115 0 -93
-26 -153 -96 -221 -87 -85 -173 -98 -639 -98 l-339 0 0 581 0 580 403 -3 c384
-3 404 -4 447 -24z"/>
<path d="M3140 1011 l0 -121 103 0 c114 0 160 10 193 41 49 46 36 150 -24 179
-16 8 -76 15 -149 18 l-123 4 0 -121z m256 89 c39 -15 53 -39 53 -90 0 -83
-30 -100 -178 -100 l-111 0 0 100 0 100 104 0 c58 0 117 -5 132 -10z"/>
<path d="M3140 555 l0 -125 136 0 c152 0 194 12 219 61 20 38 19 94 -2 130
-27 46 -76 59 -223 59 l-130 0 0 -125z m298 95 c55 -20 78 -90 47 -149 -23
-45 -77 -61 -210 -61 l-115 0 0 116 0 117 123 -6 c67 -3 137 -11 155 -17z"/>
<path d="M4060 770 l0 -600 190 0 190 0 0 240 0 240 30 0 c35 0 88 -25 107
-49 7 -9 64 -109 125 -223 l113 -208 213 0 214 0 -98 190 c-105 203 -165 290
-222 319 l-35 18 56 26 c68 31 134 95 167 162 20 42 24 65 24 145 1 114 -21
173 -87 238 -92 90 -169 102 -644 102 l-343 0 0 -600z m811 570 c153 -29 237
-120 255 -275 19 -158 -75 -293 -240 -344 -48 -15 -57 -21 -41 -26 117 -42
165 -98 280 -326 47 -92 85 -170 85 -174 0 -3 -89 -4 -197 -3 l-197 3 -101
187 c-139 259 -149 270 -237 283 l-48 7 0 -241 0 -241 -180 0 -180 0 0 580 0
580 374 0 c210 0 397 -4 427 -10z"/>
<path d="M4430 1005 l0 -125 108 0 c129 0 173 11 206 51 48 57 27 157 -39 185
-23 9 -73 14 -155 14 l-120 0 0 -125z m284 87 c48 -28 60 -105 24 -155 -19
-26 -111 -47 -210 -47 l-88 0 0 108 c0 60 3 112 8 117 4 4 58 5 121 2 83 -5
121 -11 145 -25z"/>
<path d="M5340 770 l0 -600 505 0 505 0 0 140 0 140 -315 0 -315 0 0 110 0
110 280 0 280 0 0 130 0 130 -280 0 -280 0 0 85 0 85 305 0 305 0 0 135 0 135
-495 0 -495 0 0 -600z m980 465 l0 -115 -305 0 -305 0 -5 -23 c-3 -12 -5 -58
-3 -102 l3 -80 283 -3 282 -2 0 -110 0 -110 -281 -2 -282 -3 0 -70 c0 -38 1
-94 2 -122 l1 -53 313 -2 312 -3 3 -100 c2 -55 0 -110 -3 -122 l-5 -23 -490 0
-490 0 0 580 0 580 485 0 485 0 0 -115z"/>
<path d="M7080 770 l0 -600 155 0 155 0 0 408 c0 241 4 401 9 392 5 -8 53
-184 105 -390 53 -206 99 -383 102 -392 5 -16 21 -18 145 -18 76 0 139 3 139
6 0 20 203 791 211 798 5 6 9 -147 9 -397 l0 -407 155 0 155 0 0 600 0 600
-245 0 -244 0 -11 -37 c-6 -21 -45 -171 -86 -333 -41 -162 -79 -298 -83 -303
-4 -4 -38 111 -75 255 -37 145 -76 298 -88 341 l-20 77 -244 0 -244 0 0 -600z
m494 528 c8 -29 49 -189 92 -355 42 -167 80 -303 83 -303 3 0 47 159 96 353
l91 352 237 3 237 2 0 -580 0 -580 -145 0 -145 0 0 447 c0 246 -4 443 -8 437
-5 -5 -55 -191 -112 -414 -57 -223 -107 -420 -112 -438 l-9 -33 -132 3 -131 3
-112 438 c-62 241 -115 441 -118 444 -3 4 -6 -195 -6 -440 l0 -447 -145 0
-145 0 0 580 0 580 234 0 235 0 15 -52z"/>
<path d="M8650 770 l0 -600 190 0 190 0 0 600 0 600 -190 0 -190 0 0 -600z
m370 0 l0 -580 -175 0 -175 0 0 580 0 580 175 0 175 0 0 -580z"/>
</g>
</svg>
